<svg id="Layer_1" data-name="Layer 1" xmlns="http://www.w3.org/2000/svg" viewBox="0 0 512 512"><defs><style>.cls-1{fill:none;}.cls-2{fill:#fff;}</style></defs><title>frests-white</title><rect class="cls-1" width="512" height="512"/><path class="cls-2" d="M69.32,411.3q4.61-44.6,6.36-71.63,2.64-40,5-110t2.42-94.15V111.38q66.14.44,123,.44,57.35,0,110.31-.44Q313,161.92,313,177.5l-19.12-.66-15.38-.2-15.38-.22H219.83q-7.47,0-43.72.43l-2,51.2,31.86.66h35.59q15.39,0,47-.66-2.42,41.54-2.42,65-35.31-1.1-52.43-1.1-29,0-63.17,1.1l-2.29,79.1L168,401.59v9.67l-47.29-.44Z" transform="translate(-0.5 -0.5)"/><path class="cls-2" d="M274.58,452.29l6.8-97.56,2.2-56q.21-15.17.22-31,0-16-.44-39.77,26.58.43,42.19.44,18.24,0,42-.44l-.92,24.83a159.37,159.37,0,0,1,14.07-14.4,72.7,72.7,0,0,1,12.53-8.57A60.39,60.39,0,0,1,408,224.11,67.77,67.77,0,0,1,424,222.24a80.14,80.14,0,0,1,17.59,2.2q.21,24,1.09,39.55l1.54,33.84a81.32,81.32,0,0,0-22.61-3.52q-13.17,0-22.72,3.85A47.41,47.41,0,0,0,382,309.8a57.47,57.47,0,0,0-11.74,19.45q-4.39,11.65-6.15,36.91T362.34,424q0,11.43.88,28.35-21.33-.44-42.88-.44Q299,451.85,274.58,452.29Z" transform="translate(-0.5 -0.5)"/><rect class="cls-2" x="341" y="110.9" width="100" height="66"/></svg>