<?xml version="1.0" encoding="utf-8"?>
<!-- Generator: Adobe Illustrator 24.0.2, SVG Export Plug-In . SVG Version: 6.00 Build 0)  -->
<svg version="1.1" id="Layer_1" xmlns="http://www.w3.org/2000/svg" xmlns:xlink="http://www.w3.org/1999/xlink" x="0px" y="0px"
	 viewBox="0 0 513 513" style="enable-background:new 0 0 513 513;" xml:space="preserve">
<style type="text/css">
	.st0{fill:none;}
</style>
<title>icon-frest</title>
<rect x="0.5" y="0.5" class="st0" width="512" height="512"/>
<path d="M69.3,411.3c3.1-29.7,5.2-53.6,6.4-71.6c1.8-26.7,3.4-63.3,5-110s2.4-78.1,2.4-94.1v-24.1c44.1,0.3,85.1,0.4,123,0.4
	c38.2,0,75-0.1,110.3-0.4c-2.3,33.7-3.4,55.7-3.4,66.1l-19.1-0.7l-15.4-0.2l-15.4-0.2h-43.3c-5,0-19.6,0.1-43.7,0.4l-2,51.2
	l31.9,0.7h35.6c10.3,0,25.9-0.2,47-0.7c-1.6,27.7-2.4,49.4-2.4,65c-23.5-0.7-41-1.1-52.4-1.1c-19.3,0-40.4,0.4-63.2,1.1l-2.3,79.1
	l-0.2,29.4v9.7l-47.3-0.4C117.1,410.8,100,411,69.3,411.3z"/>
<path d="M274.6,452.3l6.8-97.6l2.2-56c0.1-10.1,0.2-20.4,0.2-31c0-10.7-0.1-23.9-0.4-39.8c17.7,0.3,31.8,0.4,42.2,0.4
	c12.2,0,26.2-0.1,42-0.4l-0.9,24.8c4.4-5.1,9.1-9.9,14.1-14.4c3.9-3.3,8.1-6.2,12.5-8.6c4.6-2.5,9.6-4.5,14.7-5.7
	c5.3-1.3,10.6-1.9,16-1.9c5.9,0.1,11.8,0.8,17.6,2.2c0.1,16,0.5,29.2,1.1,39.5l1.5,33.8c-7.3-2.2-14.9-3.4-22.6-3.5
	c-8.8,0-16.4,1.3-22.7,3.9c-6.4,2.6-12.2,6.6-16.9,11.6c-5.2,5.6-9.2,12.3-11.7,19.5c-2.9,7.8-5,20.1-6.1,36.9
	c-1.2,16.8-1.8,36.1-1.8,57.8c0,7.6,0.3,17.1,0.9,28.4c-14.2-0.3-28.5-0.4-42.9-0.4C306.1,451.9,290.9,452,274.6,452.3z"/>
<rect x="341.5" y="111.4" width="100" height="66"/>
</svg>
