<svg id="Layer_1" data-name="Layer 1" xmlns="http://www.w3.org/2000/svg" viewBox="0 0 513 513"><defs><style>.cls-1{stroke:#000;stroke-miterlimit:10;}.cls-2{fill:#fff;}</style></defs><title>icon-frest</title><rect class="cls-1" x="0.5" y="0.5" width="512" height="512"/><path class="cls-2" d="M68.82,410.8q4.61-44.6,6.36-71.63,2.64-40,5-110t2.42-94.15V110.88q66.13.44,123,.44,57.35,0,110.31-.44Q312.5,161.42,312.5,177l-19.12-.66L278,176.14l-15.38-.22H219.33q-7.47,0-43.72.43l-2,51.2,31.86.66h35.59q15.39,0,47-.66-2.42,41.54-2.42,65-35.31-1.09-52.43-1.1-28.95,0-63.17,1.1l-2.29,79.1-.22,29.44v9.67l-47.29-.44Q114.79,410.36,68.82,410.8Z" transform="translate(0.5 0.5)"/><path class="cls-2" d="M274.08,451.79l6.8-97.56,2.2-56q.21-15.17.22-31,0-16-.44-39.77,26.58.44,42.19.44,18.24,0,42-.44l-.92,24.83a157.79,157.79,0,0,1,14.07-14.4,72.6,72.6,0,0,1,12.53-8.57,60.52,60.52,0,0,1,14.73-5.71,68.09,68.09,0,0,1,16.05-1.87,80.42,80.42,0,0,1,17.59,2.2q.21,24,1.09,39.55l1.54,33.84a81.22,81.22,0,0,0-22.61-3.52q-13.17,0-22.72,3.85a47.47,47.47,0,0,0-16.91,11.64,57.59,57.59,0,0,0-11.74,19.45q-4.39,11.65-6.15,36.91t-1.76,57.79q0,11.43.88,28.35-21.33-.44-42.88-.44Q298.49,451.35,274.08,451.79Z" transform="translate(0.5 0.5)"/><rect class="cls-2" x="341.5" y="111.4" width="100" height="66"/></svg>